<svg width="9" height="5" viewBox="0 0 9 5" fill="none" xmlns="http://www.w3.org/2000/svg">
<path d="M0.146447 4.14645C-0.0488155 4.34171 -0.0488155 4.65829 0.146447 4.85355C0.341709 5.04882 0.658291 5.04882 0.853553 4.85355L0.146447 4.14645ZM4.49999 0.500008L4.85355 0.146455C4.65828 -0.0488076 4.3417 -0.0488078 4.14644 0.146455L4.49999 0.500008ZM8.14643 4.85355C8.34169 5.04882 8.65828 5.04882 8.85354 4.85355C9.0488 4.65829 9.0488 4.34171 8.85354 4.14645L8.14643 4.85355ZM0.853553 4.85355L4.85355 0.853561L4.14644 0.146455L0.146447 4.14645L0.853553 4.85355ZM4.14644 0.853561L8.14643 4.85355L8.85354 4.14645L4.85355 0.146455L4.14644 0.853561Z" fill="#205EFF"/>
</svg>
